<svg width="22" height="22" viewBox="0 0 22 22" fill="none" xmlns="http://www.w3.org/2000/svg">
<path fill-rule="evenodd" clip-rule="evenodd" d="M13.0346 2.03471C13.6674 1.40197 14.5606 1.14584 15.5833 1.14584H17.4166C18.4392 1.14584 19.3325 1.40197 19.9652 2.03471C20.598 2.66745 20.8541 3.5607 20.8541 4.58334V6.41668C20.8541 7.43932 20.598 8.33257 19.9652 8.96531C19.3325 9.59805 18.4392 9.85418 17.4166 9.85418H15.5833C14.5606 9.85418 13.6674 9.59805 13.0346 8.96531C12.4019 8.33257 12.1458 7.43932 12.1458 6.41668V4.58334C12.1458 3.5607 12.4019 2.66745 13.0346 2.03471ZM14.0069 3.00698C13.723 3.29091 13.5208 3.77265 13.5208 4.58334V6.41668C13.5208 7.22737 13.723 7.70911 14.0069 7.99304C14.2908 8.27697 14.7726 8.47918 15.5833 8.47918H17.4166C18.2273 8.47918 18.709 8.27697 18.9929 7.99304C19.2769 7.70911 19.4791 7.22737 19.4791 6.41668V4.58334C19.4791 3.77265 19.2769 3.29091 18.9929 3.00698C18.709 2.72305 18.2273 2.52084 17.4166 2.52084H15.5833C14.7726 2.52084 14.2908 2.72305 14.0069 3.00698Z" fill="#F1F1F1"/>
<path fill-rule="evenodd" clip-rule="evenodd" d="M2.03462 13.0347C2.66735 12.402 3.56061 12.1458 4.58325 12.1458H6.41658C7.43923 12.1458 8.33248 12.402 8.96522 13.0347C9.59796 13.6674 9.85408 14.5607 9.85408 15.5833V17.4167C9.85408 18.4393 9.59796 19.3326 8.96522 19.9653C8.33248 20.5981 7.43923 20.8542 6.41658 20.8542H4.58325C3.56061 20.8542 2.66735 20.5981 2.03462 19.9653C1.40188 19.3326 1.14575 18.4393 1.14575 17.4167V15.5833C1.14575 14.5607 1.40188 13.6674 2.03462 13.0347ZM3.00689 14.007C2.72296 14.2909 2.52075 14.7727 2.52075 15.5833V17.4167C2.52075 18.2274 2.72296 18.7091 3.00689 18.993C3.29082 19.277 3.77256 19.4792 4.58325 19.4792H6.41658C7.22728 19.4792 7.70902 19.277 7.99295 18.993C8.27688 18.7091 8.47908 18.2274 8.47908 17.4167V15.5833C8.47908 14.7727 8.27688 14.2909 7.99295 14.007C7.70902 13.7231 7.22728 13.5208 6.41658 13.5208H4.58325C3.77256 13.5208 3.29082 13.7231 3.00689 14.007Z" fill="#F1F1F1"/>
<path fill-rule="evenodd" clip-rule="evenodd" d="M5.49992 2.52084C3.85457 2.52084 2.52075 3.85466 2.52075 5.50001C2.52075 7.14536 3.85457 8.47918 5.49992 8.47918C7.14527 8.47918 8.47908 7.14536 8.47908 5.50001C8.47908 3.85466 7.14527 2.52084 5.49992 2.52084ZM1.14575 5.50001C1.14575 3.09527 3.09518 1.14584 5.49992 1.14584C7.90466 1.14584 9.85408 3.09527 9.85408 5.50001C9.85408 7.90475 7.90466 9.85418 5.49992 9.85418C3.09518 9.85418 1.14575 7.90475 1.14575 5.50001Z" fill="#F1F1F1"/>
<path fill-rule="evenodd" clip-rule="evenodd" d="M16.4999 13.5208C14.8546 13.5208 13.5208 14.8547 13.5208 16.5C13.5208 18.1454 14.8546 19.4792 16.4999 19.4792C18.1453 19.4792 19.4791 18.1454 19.4791 16.5C19.4791 14.8547 18.1453 13.5208 16.4999 13.5208ZM12.1458 16.5C12.1458 14.0953 14.0952 12.1458 16.4999 12.1458C18.9047 12.1458 20.8541 14.0953 20.8541 16.5C20.8541 18.9047 18.9047 20.8542 16.4999 20.8542C14.0952 20.8542 12.1458 18.9047 12.1458 16.5Z" fill="#F1F1F1"/>
</svg>
