<svg width="22" height="22" viewBox="0 0 22 22" fill="none" xmlns="http://www.w3.org/2000/svg">
<path fill-rule="evenodd" clip-rule="evenodd" d="M10.9997 2.52084C6.31937 2.52084 2.52051 6.31971 2.52051 11C2.52051 15.6803 6.31937 19.4792 10.9997 19.4792C15.68 19.4792 19.4788 15.6803 19.4788 11C19.4788 6.31971 15.68 2.52084 10.9997 2.52084ZM1.14551 11C1.14551 5.56031 5.55998 1.14584 10.9997 1.14584C16.4394 1.14584 20.8538 5.56031 20.8538 11C20.8538 16.4397 16.4394 20.8542 10.9997 20.8542C5.55998 20.8542 1.14551 16.4397 1.14551 11Z" fill="#F1F1F1"/>
<path fill-rule="evenodd" clip-rule="evenodd" d="M10.6602 6.19669C11.0399 6.19669 11.3477 6.50449 11.3477 6.88419V10.6425C11.3477 10.7833 11.4014 10.9873 11.5209 11.1968C11.6404 11.4064 11.7886 11.5564 11.909 11.6277L11.9108 11.6288L11.9108 11.6288L14.7525 13.3247C15.0785 13.5192 15.1851 13.9413 14.9905 14.2673C14.7959 14.5934 14.3739 14.7 14.0478 14.5054L11.208 12.8106C11.2077 12.8104 11.2074 12.8103 11.207 12.8101C10.8329 12.5881 10.5322 12.2387 10.3265 11.878C10.1206 11.5169 9.97266 11.0793 9.97266 10.6425V6.88419C9.97266 6.50449 10.2805 6.19669 10.6602 6.19669Z" fill="#F1F1F1"/>
</svg>
