<svg width="22" height="22" viewBox="0 0 22 22" fill="none" xmlns="http://www.w3.org/2000/svg">
<path fill-rule="evenodd" clip-rule="evenodd" d="M12.1445 18.334C12.1445 17.7011 11.6315 17.1881 10.9987 17.1881C10.3659 17.1881 9.85286 17.7011 9.85286 18.334C9.85286 18.9668 10.3659 19.4798 10.9987 19.4798C11.6315 19.4798 12.1445 18.9668 12.1445 18.334ZM10.9987 15.8131C12.3909 15.8131 13.5195 16.9418 13.5195 18.334C13.5195 19.7262 12.3909 20.8548 10.9987 20.8548C9.60648 20.8548 8.47786 19.7262 8.47786 18.334C8.47786 16.9418 9.60648 15.8131 10.9987 15.8131Z" fill="#F1F1F1"/>
<path fill-rule="evenodd" clip-rule="evenodd" d="M19.4775 18.334C19.4775 17.7011 18.9645 17.1881 18.3317 17.1881C17.6989 17.1881 17.1859 17.7011 17.1859 18.334C17.1859 18.9668 17.6989 19.4798 18.3317 19.4798C18.9645 19.4798 19.4775 18.9668 19.4775 18.334ZM18.3317 15.8131C19.7239 15.8131 20.8525 16.9418 20.8525 18.334C20.8525 19.7262 19.7239 20.8548 18.3317 20.8548C16.9395 20.8548 15.8109 19.7262 15.8109 18.334C15.8109 16.9418 16.9395 15.8131 18.3317 15.8131Z" fill="#F1F1F1"/>
<path fill-rule="evenodd" clip-rule="evenodd" d="M4.81055 18.334C4.81055 17.7011 4.29754 17.1881 3.66471 17.1881C3.03189 17.1881 2.51888 17.7011 2.51888 18.334C2.51888 18.9668 3.03189 19.4798 3.66471 19.4798C4.29754 19.4798 4.81055 18.9668 4.81055 18.334ZM3.66471 15.8131C5.05693 15.8131 6.18555 16.9418 6.18555 18.334C6.18555 19.7262 5.05693 20.8548 3.66471 20.8548C2.2725 20.8548 1.14388 19.7262 1.14388 18.334C1.14388 16.9418 2.2725 15.8131 3.66471 15.8131Z" fill="#F1F1F1"/>
<path fill-rule="evenodd" clip-rule="evenodd" d="M12.1445 3.66732C12.1445 3.03449 11.6315 2.52148 10.9987 2.52148C10.3659 2.52148 9.85286 3.03449 9.85286 3.66732C9.85286 4.30014 10.3659 4.81315 10.9987 4.81315C11.6315 4.81315 12.1445 4.30014 12.1445 3.66732ZM10.9987 1.14648C12.3909 1.14648 13.5195 2.2751 13.5195 3.66732C13.5195 5.05954 12.3909 6.18815 10.9987 6.18815C9.60648 6.18815 8.47786 5.05954 8.47786 3.66732C8.47786 2.2751 9.60648 1.14648 10.9987 1.14648Z" fill="#F1F1F1"/>
<path fill-rule="evenodd" clip-rule="evenodd" d="M10.998 4.81314C11.3777 4.81314 11.6855 5.12095 11.6855 5.50064L11.6855 16.5006C11.6855 16.8803 11.3777 17.1881 10.998 17.1881C10.6184 17.1881 10.3105 16.8803 10.3105 16.5006L10.3105 5.50064C10.3105 5.12095 10.6184 4.81314 10.998 4.81314Z" fill="#F1F1F1"/>
<path fill-rule="evenodd" clip-rule="evenodd" d="M18.1307 10.2853C18.7634 10.9181 19.0195 11.8113 19.0195 12.834L19.0195 16.5007C19.0195 16.8803 18.7117 17.1882 18.332 17.1882C17.9523 17.1882 17.6445 16.8803 17.6445 16.5007L17.6445 12.834C17.6445 12.0233 17.4423 11.5415 17.1584 11.2576C16.8745 10.9737 16.3927 10.7715 15.582 10.7715L6.41537 10.7715C5.60467 10.7715 5.12293 10.9737 4.839 11.2576C4.55507 11.5415 4.35287 12.0233 4.35287 12.834L4.35286 16.5007C4.35286 16.8803 4.04506 17.1882 3.66536 17.1882C3.28567 17.1882 2.97786 16.8803 2.97786 16.5007L2.97787 12.834C2.97787 11.8113 3.23399 10.9181 3.86673 10.2853C4.49947 9.65261 5.39272 9.39648 6.41537 9.39648L15.582 9.39648C16.6047 9.39648 17.4979 9.65261 18.1307 10.2853Z" fill="#F1F1F1"/>
</svg>
