<svg width="22" height="22" viewBox="0 0 22 22" fill="none" xmlns="http://www.w3.org/2000/svg">
<path fill-rule="evenodd" clip-rule="evenodd" d="M11 8.9375C9.86091 8.9375 8.9375 9.86091 8.9375 11C8.9375 12.1391 9.86091 13.0625 11 13.0625C12.1391 13.0625 13.0625 12.1391 13.0625 11C13.0625 9.86091 12.1391 8.9375 11 8.9375ZM7.5625 11C7.5625 9.10152 9.10152 7.5625 11 7.5625C12.8985 7.5625 14.4375 9.10152 14.4375 11C14.4375 12.8985 12.8985 14.4375 11 14.4375C9.10152 14.4375 7.5625 12.8985 7.5625 11Z" fill="#F1F1F1"/>
<path fill-rule="evenodd" clip-rule="evenodd" d="M8.80286 3.45599C8.55749 3.0472 8.04076 2.92004 7.65702 3.14834L7.64702 3.15429L6.06114 4.0617C5.55938 4.34842 5.38628 4.99848 5.67329 5.49523L5.07801 5.83917L5.67282 5.49441C6.16329 6.34061 6.29515 7.26808 5.85701 8.02837C5.41894 8.78856 4.55073 9.13917 3.57467 9.13917C2.99422 9.13917 2.52051 9.61734 2.52051 10.1933V11.8067C2.52051 12.3827 2.99422 12.8608 3.57467 12.8608C4.55073 12.8608 5.41894 13.2114 5.85701 13.9716C6.29509 14.7318 6.16333 15.6591 5.67301 16.5053C5.38639 17.0019 5.55918 17.6515 6.06077 17.9381L7.65707 18.8516C8.0408 19.0799 8.55747 18.9528 8.80284 18.544L8.90136 18.3739C9.39166 17.528 10.1307 16.9515 11.0077 16.9515C11.8854 16.9515 12.6221 17.5284 13.108 18.3753C13.1082 18.3757 13.1084 18.376 13.1086 18.3764L13.2057 18.544C13.451 18.9528 13.9678 19.08 14.3515 18.8517L14.3615 18.8457L15.9474 17.9383C16.4478 17.6523 16.6236 17.0113 16.3345 16.5035C15.845 15.6578 15.7137 14.7313 16.1515 13.9716C16.5896 13.2114 17.4578 12.8608 18.4338 12.8608C19.0143 12.8608 19.488 12.3827 19.488 11.8067V10.1933C19.488 9.61288 19.0098 9.13917 18.4338 9.13917C17.4578 9.13917 16.5896 8.78856 16.1515 8.02837C15.7135 7.26823 15.8452 6.34097 16.3354 5.4949C16.6222 4.99819 16.4494 4.34857 15.9477 4.06192L14.3514 3.14843C13.9677 2.92013 13.451 3.0472 13.2057 3.45599L13.1072 3.62613C12.6169 4.47204 11.8778 5.04854 11.0008 5.04854C10.1233 5.04854 9.38654 4.47172 8.9007 3.62499C8.90043 3.62452 8.90016 3.62405 8.89989 3.62358L8.80286 3.45599ZM6.95945 1.96342C8.02226 1.33517 9.37037 1.72061 9.98635 2.75599L9.99053 2.76301L10.0913 2.9372L10.0928 2.93975C10.432 3.53142 10.7857 3.67354 11.0008 3.67354C11.2169 3.67354 11.5734 3.53021 11.9172 2.9372C11.9171 2.9373 11.9173 2.9371 11.9172 2.9372L12.0221 2.75596C12.6381 1.72058 13.9863 1.33517 15.0491 1.96343L16.6299 2.86808C17.7965 3.5347 18.1921 5.02986 17.5258 6.18311L17.5253 6.18393C17.1816 6.77689 17.2356 7.15567 17.3428 7.34184C17.4502 7.52811 17.7507 7.76417 18.4338 7.76417C19.7645 7.76417 20.863 8.84879 20.863 10.1933V11.8067C20.863 13.1373 19.7784 14.2358 18.4338 14.2358C17.7507 14.2358 17.4502 14.4719 17.3428 14.6582C17.2356 14.8443 17.1816 15.2231 17.5253 15.8161L17.5274 15.8197C18.1904 16.9799 17.7974 18.4645 16.6303 19.1317C16.6302 19.1318 16.6304 19.1316 16.6303 19.1317L15.049 20.0366C13.9862 20.6648 12.6381 20.2794 12.0222 19.244L12.018 19.237L11.9172 19.0628L11.9157 19.0602C11.5766 18.4686 11.2228 18.3265 11.0077 18.3265C10.7916 18.3265 10.4351 18.4698 10.0913 19.0628C10.0913 19.0629 10.0914 19.0627 10.0913 19.0628L9.98639 19.244C9.37042 20.2794 8.02233 20.6648 6.95953 20.0366L5.37858 19.1319C5.37846 19.1318 5.3787 19.132 5.37858 19.1319C4.21229 18.4652 3.81647 16.97 4.48273 15.8169L4.4832 15.8161C4.82689 15.2231 4.77295 14.8443 4.66567 14.6582C4.55833 14.4719 4.25778 14.2358 3.57467 14.2358C2.23013 14.2358 1.14551 13.1373 1.14551 11.8067V10.1933C1.14551 8.86266 2.23013 7.76417 3.57467 7.76417C4.25778 7.76417 4.55833 7.52811 4.66567 7.34184C4.77295 7.15567 4.82689 6.77689 4.4832 6.18393L4.48273 6.18311C3.81647 5.02998 4.21192 3.53501 5.37821 2.8683L6.95945 1.96342Z" fill="#F1F1F1"/>
</svg>
