<svg width="22" height="22" viewBox="0 0 22 22" fill="none" xmlns="http://www.w3.org/2000/svg">
<path fill-rule="evenodd" clip-rule="evenodd" d="M9.39551 17.875C9.39551 17.4953 9.70331 17.1875 10.083 17.1875H19.2497C19.6294 17.1875 19.9372 17.4953 19.9372 17.875C19.9372 18.2547 19.6294 18.5625 19.2497 18.5625H10.083C9.70331 18.5625 9.39551 18.2547 9.39551 17.875Z" fill="#F1F1F1"/>
<path fill-rule="evenodd" clip-rule="evenodd" d="M9.39551 11.4583C9.39551 11.0786 9.70331 10.7708 10.083 10.7708H19.2497C19.6294 10.7708 19.9372 11.0786 19.9372 11.4583C19.9372 11.838 19.6294 12.1458 19.2497 12.1458H10.083C9.70331 12.1458 9.39551 11.838 9.39551 11.4583Z" fill="#F1F1F1"/>
<path fill-rule="evenodd" clip-rule="evenodd" d="M9.39551 5.04169C9.39551 4.66199 9.70331 4.35419 10.083 4.35419H19.2497C19.6294 4.35419 19.9372 4.66199 19.9372 5.04169C19.9372 5.42138 19.6294 5.72919 19.2497 5.72919H10.083C9.70331 5.72919 9.39551 5.42138 9.39551 5.04169Z" fill="#F1F1F1"/>
<path fill-rule="evenodd" clip-rule="evenodd" d="M6.9028 2.72221C7.17129 2.99069 7.17129 3.42599 6.9028 3.69448L4.1528 6.44448C3.88432 6.71297 3.44902 6.71297 3.18053 6.44448L2.26386 5.52781C1.99538 5.25933 1.99538 4.82403 2.26386 4.55554C2.53235 4.28706 2.96765 4.28706 3.23614 4.55554L3.66667 4.98607L5.93053 2.72221C6.19902 2.45372 6.63432 2.45372 6.9028 2.72221Z" fill="#F1F1F1"/>
<path fill-rule="evenodd" clip-rule="evenodd" d="M6.9028 9.13886C7.17129 9.40735 7.17129 9.84265 6.9028 10.1111L4.1528 12.8611C3.88432 13.1296 3.44902 13.1296 3.18053 12.8611L2.26386 11.9445C1.99538 11.676 1.99538 11.2407 2.26386 10.9722C2.53235 10.7037 2.96765 10.7037 3.23614 10.9722L3.66667 11.4027L5.93053 9.13886C6.19902 8.87038 6.63432 8.87038 6.9028 9.13886Z" fill="#F1F1F1"/>
<path fill-rule="evenodd" clip-rule="evenodd" d="M6.9028 15.5556C7.17129 15.824 7.17129 16.2593 6.9028 16.5278L4.1528 19.2778C3.88432 19.5463 3.44902 19.5463 3.18053 19.2778L2.26386 18.3612C1.99538 18.0927 1.99538 17.6574 2.26386 17.3889C2.53235 17.1204 2.96765 17.1204 3.23614 17.3889L3.66667 17.8194L5.93053 15.5556C6.19902 15.2871 6.63432 15.2871 6.9028 15.5556Z" fill="#F1F1F1"/>
</svg>
