<svg width="22" height="22" viewBox="0 0 22 22" fill="none" xmlns="http://www.w3.org/2000/svg">
<path fill-rule="evenodd" clip-rule="evenodd" d="M16.4177 2.52081C15.4866 2.52081 14.7402 3.26718 14.7402 4.19831C14.7402 5.09474 15.4297 5.81721 16.3025 5.87382C16.3757 5.86732 16.4506 5.86732 16.5238 5.87382C17.3951 5.81726 18.0876 5.09573 18.0952 4.19586C18.0939 3.27327 17.3463 2.52081 16.4177 2.52081ZM13.3652 4.19831C13.3652 2.50779 14.7272 1.14581 16.4177 1.14581C18.11 1.14581 19.4702 2.51869 19.4702 4.19831V4.20323H19.4702C19.4584 5.85224 18.1604 7.19112 16.5251 7.25037C16.4877 7.25172 16.4503 7.25002 16.4131 7.24528C16.376 7.25002 16.3386 7.25172 16.3012 7.25037C14.6668 7.19115 13.3652 5.85201 13.3652 4.19831Z" fill="#F1F1F1"/>
<path fill-rule="evenodd" clip-rule="evenodd" d="M15.4098 8.11362C16.8034 7.86948 18.3925 8.10224 19.5477 8.86879L19.549 8.86961C20.3386 9.39601 20.8245 10.1588 20.8245 11.0091C20.8245 11.8595 20.3386 12.6223 19.549 13.1487C18.4023 13.9161 16.8322 14.148 15.4421 13.9147C15.0677 13.8518 14.8151 13.4973 14.8779 13.1228C14.9408 12.7484 15.2953 12.4958 15.6698 12.5586C16.7908 12.7468 17.9884 12.539 18.785 12.0054L18.7862 12.0046C19.2891 11.6693 19.4495 11.2954 19.4495 11.0091C19.4495 10.723 19.2893 10.3493 18.7869 10.0141C17.9804 9.47928 16.7648 9.27218 15.6471 9.46799C15.2731 9.53351 14.9168 9.28344 14.8512 8.90944C14.7857 8.53544 15.0358 8.17913 15.4098 8.11362Z" fill="#F1F1F1"/>
<path fill-rule="evenodd" clip-rule="evenodd" d="M2.50293 4.19831C2.50293 2.51869 3.86317 1.14581 5.55543 1.14581C7.24596 1.14581 8.60793 2.50779 8.60793 4.19831C8.60793 5.85201 7.3064 7.19115 5.67199 7.25037C5.63457 7.25172 5.59712 7.25002 5.56001 7.24528C5.5229 7.25002 5.48545 7.25172 5.44804 7.25037C3.81277 7.19112 2.51473 5.85224 2.50295 4.20323L2.50293 4.19831ZM3.87793 4.19587C3.88561 5.09573 4.57806 5.81726 5.44932 5.87382C5.52253 5.86732 5.5975 5.86732 5.67071 5.87382C6.54347 5.81721 7.23293 5.09474 7.23293 4.19831C7.23293 3.26718 6.48657 2.52081 5.55543 2.52081C4.62685 2.52081 3.87925 3.27328 3.87793 4.19587Z" fill="#F1F1F1"/>
<path fill-rule="evenodd" clip-rule="evenodd" d="M3.18605 10.0141C3.99249 9.47928 5.20809 9.27218 6.32585 9.46799C6.69985 9.53351 7.05615 9.28344 7.12166 8.90944C7.18718 8.53544 6.93711 8.17913 6.56311 8.11362C5.16949 7.86948 3.58042 8.10224 2.42519 8.86879L2.42519 8.86879L2.42396 8.86961C1.63435 9.39601 1.14844 10.1588 1.14844 11.0091C1.14844 11.8593 1.6341 12.6219 2.42333 13.1483C3.57005 13.9161 5.14044 14.1481 6.5308 13.9147C6.90526 13.8518 7.15785 13.4973 7.09499 13.1228C7.03212 12.7484 6.67761 12.4958 6.30315 12.5586C5.1821 12.7468 3.98447 12.539 3.18791 12.0054L3.18667 12.0046C2.68377 11.6693 2.52344 11.2954 2.52344 11.0091C2.52344 10.723 2.68364 10.3493 3.18605 10.0141Z" fill="#F1F1F1"/>
<path fill-rule="evenodd" clip-rule="evenodd" d="M10.9177 9.36829C9.9866 9.36829 9.24023 10.1146 9.24023 11.0458C9.24023 11.9422 9.92969 12.6647 10.8025 12.7213C10.8767 12.7147 10.9527 12.7148 11.0269 12.7216C11.8911 12.672 12.5875 11.9481 12.5952 11.0433C12.5939 10.1207 11.8463 9.36829 10.9177 9.36829ZM7.86523 11.0458C7.86523 9.35526 9.2272 7.99329 10.9177 7.99329C12.61 7.99329 13.9702 9.36616 13.9702 11.0458V11.0507H13.9702C13.9585 12.6953 12.6637 14.0504 11.0202 14.098C10.9844 14.099 10.9486 14.0973 10.9131 14.0928C10.876 14.0975 10.8386 14.0992 10.8012 14.0978C9.16676 14.0386 7.86523 12.6995 7.86523 11.0458Z" fill="#F1F1F1"/>
<path fill-rule="evenodd" clip-rule="evenodd" d="M11.0036 14.882C12.0747 14.882 13.1828 15.1488 14.049 15.7262C14.8386 16.2526 15.3245 17.0154 15.3245 17.8658C15.3245 18.716 14.8387 19.4787 14.0493 20.0051C13.1794 20.5866 12.0717 20.8564 11.0002 20.8564C9.92858 20.8564 8.82088 20.5866 7.951 20.0051C7.16157 19.4787 6.67578 18.716 6.67578 17.8658C6.67578 17.0154 7.1617 16.2526 7.9513 15.7262L7.95295 15.7251L7.95295 15.7251C8.82285 15.1488 9.93227 14.882 11.0036 14.882ZM8.7132 16.8708C8.21094 17.206 8.05078 17.5796 8.05078 17.8658C8.05078 18.1521 8.21112 18.526 8.71401 18.8612L8.71484 18.8618C9.31154 19.2608 10.1378 19.4814 11.0002 19.4814C11.8625 19.4814 12.6888 19.2608 13.2855 18.8618L13.2863 18.8612C13.7892 18.526 13.9495 18.1521 13.9495 17.8658C13.9495 17.5795 13.7892 17.2056 13.2863 16.8703C12.695 16.4761 11.8689 16.257 11.0036 16.257C10.1389 16.257 9.30991 16.4758 8.7132 16.8708Z" fill="#F1F1F1"/>
</svg>
